# xmcd
#
# Track frame offsets: 
#        225
#        16508
#        34109
#        53394
#        71012
#        87630
#        106934
#        118663
#        136037
#
# Disc length: 1993 seconds
#
# Revision: 0
# Processed by: cddbd v1.5.2PL0 Copyright (c) Steve Scherf et al.
# Submitted via: ExactAudioCopy v0.95b4
#
DISCID=6907c609
DTITLE=Mike Lowrey Band - Mike Lowry Band
DYEAR=2003
DGENRE=Blues
TTITLE0=No One You'd Know
TTITLE1=Just Defy My Love
TTITLE2=Don't Carry The Weight
TTITLE3=I'm Forgetting You
TTITLE4=Dark Before The Dawn
TTITLE5=Coming Home To You
TTITLE6=Good-Bye
TTITLE7=Gettin' Burned
TTITLE8=Trying To Get Over You
EXTD=
EXTT0=
EXTT1=
EXTT2=
EXTT3=
EXTT4=
EXTT5=
EXTT6=
EXTT7=
EXTT8=
PLAYORDER=
